<mxfile host="app.diagrams.net" modified="2024-04-21T06:44:51.938Z" agent="Mozilla/5.0 (Windows NT 10.0; Win64; x64) AppleWebKit/537.36 (KHTML, like Gecko) Chrome/123.0.0.0 Safari/537.36" version="23.1.2" etag="y4BzTkNL3wpLG8PhbLkg" type="github">
  <diagram name="Halaman-1" id="AGoQxh4XdU1MUTxFBzIs">
    <mxGraphModel>
      <root>
        <mxCell id="0" />
        <mxCell id="1" parent="0" />
      </root>
    </mxGraphModel>
  </diagram>
</mxfile>
